<?xml version="1.0" encoding="UTF-8" standalone="no"?>
<!-- Created with Inkscape (http://www.inkscape.org/) -->
<svg xmlns:dc="http://purl.org/dc/elements/1.1/" xmlns:cc="http://creativecommons.org/ns#" xmlns:rdf="http://www.w3.org/1999/02/22-rdf-syntax-ns#" xmlns:svg="http://www.w3.org/2000/svg" xmlns="http://www.w3.org/2000/svg" xmlns:sodipodi="http://sodipodi.sourceforge.net/DTD/sodipodi-0.dtd" xmlns:inkscape="http://www.inkscape.org/namespaces/inkscape" width="711.18237" height="685.57092" id="svg2432" sodipodi:version="0.32" inkscape:version="0.46" sodipodi:docname="dessin.svg" inkscape:output_extension="org.inkscape.output.svg.inkscape" version="1.0">
  <defs id="defs2434">
    <inkscape:perspective sodipodi:type="inkscape:persp3d" inkscape:vp_x="0 : 526.18109 : 1" inkscape:vp_y="0 : 1000 : 0" inkscape:vp_z="744.09448 : 526.18109 : 1" inkscape:persp3d-origin="372.04724 : 350.78739 : 1" id="perspective2440"/>
  </defs>
  <sodipodi:namedview id="base" pagecolor="#ffffff" bordercolor="#666666" borderopacity="1.0" inkscape:pageopacity="0.0" inkscape:pageshadow="2" inkscape:zoom="0.35" inkscape:cx="158.1315" inkscape:cy="593.48033" inkscape:document-units="px" inkscape:current-layer="g2419" showgrid="false" inkscape:window-width="662" inkscape:window-height="676" inkscape:window-x="44" inkscape:window-y="44"/>
  <metadata id="metadata2437">
    <rdf:RDF>
      <cc:Work rdf:about="">
        <dc:format>image/svg+xml</dc:format>
        <dc:type rdf:resource="http://purl.org/dc/dcmitype/StillImage"/>
      </cc:Work>
    </rdf:RDF>
  </metadata>
  <g inkscape:label="Calque 1" inkscape:groupmode="layer" id="layer1" transform="translate(-10.123271,-361.00548)">
    <g id="g2419">
      <g id="g2461" transform="translate(0,111.42857)">
        <circle cx="240" cy="240" r="200" style="font-size:12px;fill:#ffffff;fill-opacity:1;stroke:none;stroke-width:20" id="circle3187" sodipodi:cx="240" sodipodi:cy="240" sodipodi:rx="200" sodipodi:ry="200" transform="matrix(1.65789,0,0,1.65789,-32.17932,194.46858)"/>
        <g id="g2792" transform="matrix(2.486835,0,0,2.486835,458.08338,-205.74712)" style="fill:#ffffff;fill-opacity:1">
          <path sodipodi:nodetypes="cccccccccccccccccccc" d="M 21.6168,356.02023 C 6.90765,363.29558 -77.39211,387.81103 -90.36134,394.69087 C -103.33057,401.57071 -115.11328,407.97583 -129.98028,413.66971 C -142.07985,416.6748 -141.60512,409.24158 -156.31421,414.14444 C -160.50549,417.46582 -160.42639,422.21025 -157.0259,425.76871 C -153.07182,429.64404 -150.30392,432.09575 -146.82428,435.49635 C -145.71696,440.39921 -145.5591,444.59026 -144.92651,450.442 C -142.55401,457.63871 -137.33486,457.2432 -132.82751,453.76396 C -130.85052,451.31224 -128.39881,449.09818 -126.89655,446.40938 C -124.84035,442.85092 -122.54707,438.81773 -119.77906,435.49635 L -83.95565,416.51694 L 16.63473,383.06546 L 70.48866,357.68093 C 80.68989,353.64774 82.1135,359.34162 91.12877,357.68093 C 98.00861,357.60171 103.70249,354.91349 103.22833,348.42915 C 99.74852,343.28808 96.50578,340.04591 90.41696,334.43125 C 90.73325,328.42107 89.62594,322.64797 87.33266,316.87544 C 84.96016,313.47485 80.68989,311.97202 74.28477,318.06141 C 67.79987,322.96427 69.8555,329.52839 61.71048,336.32902 C 48.42494,342.89257 36.32595,348.74488 21.6168,356.02023 z" style="font-size:12px;fill:#ffffff;fill-opacity:1;fill-rule:evenodd;stroke:none;stroke-width:5.1807723;stroke-linecap:butt;stroke-linejoin:round;stroke-opacity:0.99122799" id="path2705"/>
          <path sodipodi:nodetypes="cccccccccccccccccccc" d="M -89.9909,383.7596 C -71.81733,392.70648 8.56835,415.80513 8.56835,415.80513 L 44.6294,434.54689 C 53.16994,441.98068 51.03509,447.0414 56.96605,451.62854 C 62.81779,457.00612 66.53469,457.87579 70.01393,452.81507 C 72.78194,447.04197 72.22857,441.26888 73.09881,435.02162 C 77.13143,431.14686 80.45338,429.16988 83.77476,425.29512 C 87.41244,421.26193 87.25344,417.22874 81.63877,414.38209 C 76.973,412.48432 72.54486,411.53486 66.9302,413.19555 C 63.37117,414.30287 59.57563,414.93546 54.8312,412.95847 L 15.92292,394.92795 L -94.68802,356.5833 C -109.56244,349.31364 -121.92017,343.88932 -136.62704,335.78134 C -144.62332,329.40643 -142.05079,322.19262 -151.72469,316.3215 C -155.97449,314.19691 -159.04997,313.24632 -162.46099,319.00573 C -164.64183,324.1508 -164.47405,329.6304 -164.80956,334.94302 C -168.61199,339.02465 -172.91771,341.42963 -176.04914,346.51828 C -180.57855,353.78793 -173.70064,356.19234 -170.01002,357.08709 C -159.49745,359.7149 -155.69507,354.96193 -146.02129,356.91897 C -127.17637,365.69829 -108.16447,374.81272 -89.9909,383.7596 z" style="font-size:12px;fill:#ffffff;fill-opacity:1;fill-rule:evenodd;stroke:none;stroke-width:5.1807723;stroke-linecap:butt;stroke-linejoin:round;stroke-opacity:0.99122799" id="path2703"/>
          <path sodipodi:nodetypes="cccccccccccccccccccsc" d="M -37.21931,434.42892 C -48.05303,434.42892 -54.3795,433.47947 -64.50151,429.80247 C -74.38701,425.76928 -84.27194,413.67028 -86.80287,403.46905 C -88.77986,396.03526 -89.33323,386.7037 -87.51468,378.79576 C -87.91019,368.99004 -92.10124,359.65848 -95.99568,349.52359 C -98.90856,347.7869 -101.6636,346.3407 -104.04523,344.2267 C -108.46253,340.25107 -111.88707,329.98032 -110.67204,318.05343 C -109.97005,313.92979 -109.15569,314.86518 -109.34702,307.12045 C -120.25264,296.51858 -127.8745,278.11933 -128.93224,258.2503 C -130.08059,236.3547 -118.54978,214.61292 -101.27095,202.21809 C -81.91198,188.5921 -49.54332,184.82357 -29.41669,185.84056 C -15.78409,185.85002 14.58308,192.91884 25.30235,200.90173 C 44.10566,214.57371 54.18949,233.97879 54.88819,256.09664 C 55.92142,278.31309 46.56422,295.23459 34.8772,305.34079 C 35.4993,309.41867 36.4693,313.74092 37.14704,317.72213 C 38.36207,329.64902 34.93753,339.91977 30.52023,343.8954 C 28.25305,345.90782 25.01979,347.44208 21.94693,349.36533 C 18.01834,359.65848 13.82729,368.99004 13.43178,378.79576 C 15.25033,386.7037 14.69696,396.03526 12.71997,403.46905 C 10.18904,413.67028 0.18557,425.41366 -9.69993,429.44685 C -19.58486,433.48004 -25.91076,434.42892 -37.21931,434.42892 z" style="font-size:12px;fill:#ffffff;fill-opacity:1;fill-rule:evenodd;stroke:none;stroke-width:5.1807723;stroke-linecap:round;stroke-linejoin:round;stroke-opacity:0.99122799" id="path2691"/>
        </g>
        <g id="g670" style="font-size:12px;fill:#000000;fill-opacity:1;stroke:none;stroke-opacity:0.99122799" transform="matrix(1.417251,0,0,1.417251,-56.900914,221.30504)">
          <path style="fill:#000000;fill-opacity:1;fill-rule:evenodd;stroke:none;stroke-width:0.72725229pt;stroke-linecap:butt;stroke-linejoin:miter;stroke-opacity:0.99122799" d="M 294.895,259.711 C 285.199,267.084 283.042,269.56 277.684,277.719 C 275.745,280.868 272.124,288.227 271.134,293.164 C 270.145,298.1 269.404,305.262 269.407,309.055 C 269.419,321.908 273.51,329.971 277.978,329.69 C 281.97,329.232 287.05,325.069 294.748,315.614" id="path584" sodipodi:nodetypes="cssssc"/>
          <path style="fill:#000000;fill-opacity:1;fill-rule:evenodd;stroke:none;stroke-width:0.72725229pt;stroke-linecap:butt;stroke-linejoin:bevel;stroke-opacity:0.99122799" d="M 294.895,259.711 C 285.199,267.084 283.042,269.56 277.684,277.719 C 275.745,280.868 272.124,288.227 271.134,293.164 C 270.145,298.1 269.404,305.262 269.407,309.055 C 269.419,321.908 273.51,329.971 277.978,329.69 C 281.97,329.232 287.05,325.069 294.748,315.614" id="path585" sodipodi:nodetypes="cssssc" transform="matrix(-1,0,0,1,596.772,0.208099)"/>
          <path style="fill:#000000;fill-opacity:1;fill-rule:evenodd;stroke:none;stroke-width:0.72725229pt;stroke-linecap:butt;stroke-linejoin:miter;stroke-opacity:0.99122799" d="M 211.888,203.561 C 225.348,201.202 238.391,199.676 251.851,198.15 C 269.474,193.709 278.355,213.83 273.498,228.955 C 267.393,242.415 258.79,254.21 248.938,265.588 C 241.306,274.191 232.214,275.583 223.544,272.664 C 216.546,270.724 210.083,266.421 203.145,256.43 C 200.093,247.826 197.457,243.385 193.571,232.701 C 190.519,222.849 195.266,208.101 211.888,203.561 z" id="path586" sodipodi:nodetypes="ccccsccc" transform="translate(0.588722,-3.051758e-5)"/>
          <path style="fill:#000000;fill-opacity:1;fill-rule:evenodd;stroke:none;stroke-width:0.72725229pt;stroke-linecap:butt;stroke-linejoin:miter;stroke-opacity:0.99122799" d="M 211.888,203.561 C 225.348,201.202 238.391,199.676 251.851,198.15 C 269.474,193.709 278.355,213.83 273.498,228.955 C 267.393,242.415 258.79,254.21 248.938,265.588 C 241.306,274.191 232.214,275.583 223.544,272.664 C 216.546,270.724 210.083,266.421 203.145,256.43 C 200.093,247.826 197.457,243.385 193.571,232.701 C 190.519,222.849 195.266,208.101 211.888,203.561 z" id="path587" sodipodi:nodetypes="ccccsccc" transform="matrix(-1,0,0,1,596.4468,-3.051758e-5)"/>
        </g>
        <g style="font-size:12px;stroke:#000000;stroke-opacity:1" id="g770" transform="matrix(1.417251,0,0,1.417251,-56.900914,224.16218)">
          <path sodipodi:nodetypes="ccccccccccc" id="path765" d="M 391.308,389.636 L 459.58,421.274 C 467.905,424.743 474.565,423.633 480.81,421.69 C 490.662,418.776 498.432,420.442 506.619,423.772 C 516.471,428.767 516.75,435.844 510.367,442.921 C 504.539,449.72 498.71,453.189 491.634,459.988 C 490.107,470.95 491.078,481.08 486.221,491.21 C 480.116,500.09 473.594,498.564 463.326,489.128 C 452.919,481.079 456.665,472.199 441.679,459.155 L 378.403,426.269 L 378.403,426.269" style="fill:none;fill-opacity:1;fill-rule:evenodd;stroke:#000000;stroke-width:9.09065342;stroke-linecap:butt;stroke-linejoin:round;stroke-dasharray:none;stroke-opacity:1"/>
          <path sodipodi:nodetypes="cccccccccc" id="path766" d="M 204.812,389.22 C 182.055,401.292 161.38,412.531 135.293,422.522 C 114.062,427.795 114.895,414.752 89.0851,423.355 C 81.7307,429.183 81.8695,437.508 87.8363,443.752 C 94.7745,450.552 99.6313,454.854 105.737,460.821 C 107.68,469.424 107.957,476.778 109.067,487.046 C 113.23,499.674 122.388,498.98 130.297,492.875 C 133.766,488.573 138.068,484.688 140.704,479.97 C 144.312,473.726 148.336,466.649 153.193,460.821 L 216.052,427.518" style="fill:none;fill-opacity:1;fill-rule:evenodd;stroke:#000000;stroke-width:9.09065342;stroke-linecap:butt;stroke-linejoin:round;stroke-dasharray:none;stroke-opacity:1"/>
          <path sodipodi:nodetypes="cccccccccc" id="path767" d="M 401.299,321.365 C 427.109,308.599 448.339,298.33 471.651,286.813 C 485.943,274.88 482.336,263.362 493.715,254.759 C 504.954,244.074 512.447,246.711 516.61,252.678 C 520.634,262.807 522.577,272.937 522.022,283.483 C 532.706,293.335 538.396,299.024 544.502,308.045 C 545.334,319.423 535.343,324.14 523.271,324.279 C 507.452,327.193 504.954,317.202 487.054,324.279 L 392.557,368.821 L 392.557,368.821" style="fill:none;fill-opacity:1;fill-rule:evenodd;stroke:#000000;stroke-width:9.09065342;stroke-linecap:square;stroke-linejoin:round;stroke-dasharray:none;stroke-opacity:1"/>
          <path sodipodi:nodetypes="ccccccccc" id="path769" d="M 197.22,322.353 C 171.12,309.597 149.436,300.079 123.63,285.852 C 109.599,274.666 114.113,262.008 97.1383,251.706 C 89.6812,247.978 84.2847,246.31 78.2994,256.416 C 74.4727,265.444 74.7671,275.059 74.1784,284.381 C 67.5063,291.543 59.9511,295.763 54.4564,304.692 C 46.5087,317.448 58.5773,321.667 65.0532,323.237 C 83.4995,327.848 90.1715,319.508 107.146,322.942 C 140.213,338.347 173.573,354.34 205.462,370.039" style="fill:none;fill-opacity:1;fill-rule:evenodd;stroke:#000000;stroke-width:9.09065342;stroke-linecap:butt;stroke-linejoin:round;stroke-dasharray:none;stroke-opacity:1"/>
        </g>
        <g style="font-size:12px;fill:none;fill-opacity:1;stroke:#000000;stroke-opacity:1" id="g740" transform="matrix(1.417251,0,0,1.417251,-56.900914,224.16218)">
          <g style="font-size:12px;fill:none;fill-opacity:1;stroke:#000000;stroke-opacity:1" id="g652">
            <path sodipodi:nodetypes="csc" id="path611" d="M 212.232,318.53 C 217.922,331.874 219.682,336.945 223.785,350.248 C 227.281,362.537 228.566,370.042 230.726,387.506" style="fill:none;fill-opacity:1;fill-rule:evenodd;stroke:#000000;stroke-width:4.54532671;stroke-linecap:butt;stroke-linejoin:miter;stroke-dasharray:none;stroke-opacity:1"/>
            <path transform="matrix(-1,0,0,1,596.3183,-0.735886)" sodipodi:nodetypes="csc" id="path612" d="M 212.232,318.53 C 217.922,331.874 219.682,336.945 223.785,350.248 C 227.281,362.537 228.566,370.042 230.726,387.506" style="fill:none;fill-opacity:1;fill-rule:evenodd;stroke:#000000;stroke-width:4.54532671;stroke-linecap:butt;stroke-linejoin:miter;stroke-dasharray:none;stroke-opacity:1"/>
            <g style="fill:none;fill-opacity:1;stroke:#000000;stroke-opacity:1" id="g637">
              <path sodipodi:nodetypes="csc" id="path588" d="M 236.516,349.732 C 251.234,358.759 276.677,360.151 299.472,359.741 C 324.866,359.612 346.605,357.778 360.881,349.144" style="fill:none;fill-opacity:1;fill-rule:evenodd;stroke:#000000;stroke-width:3.63626146;stroke-linecap:butt;stroke-linejoin:miter;stroke-dasharray:none;stroke-opacity:1"/>
              <path sodipodi:nodetypes="csc" id="path608" d="M 241.667,373.282 C 257.905,383.486 277.001,386.99 298.993,386.16 C 321.835,385.604 339.344,383.682 354.994,372.988" style="fill:none;fill-opacity:1;fill-rule:evenodd;stroke:#000000;stroke-width:3.63626146;stroke-linecap:butt;stroke-linejoin:miter;stroke-dasharray:none;stroke-opacity:1"/>
              <g style="fill:none;fill-opacity:1;stroke:#000000;stroke-opacity:1" id="g625">
                <path sodipodi:nodetypes="csc" id="path609" d="M 229.893,385.644 C 247.26,406.592 271.501,410.229 299.066,410.959 C 328.585,412.036 358.232,400.314 365.885,385.645" style="fill:none;fill-opacity:1;fill-rule:evenodd;stroke:#000000;stroke-width:4.54532671;stroke-linecap:butt;stroke-linejoin:miter;stroke-dasharray:none;stroke-opacity:1"/>
                <g style="fill:none;fill-opacity:1;stroke:#000000;stroke-opacity:1" id="g615">
                  <path id="path589" d="M 241.444,354.256 L 241.028,395.468" style="fill:none;fill-opacity:1;fill-rule:evenodd;stroke:#000000;stroke-width:3.63626146;stroke-linecap:butt;stroke-linejoin:miter;stroke-dasharray:none;stroke-opacity:1"/>
                  <path id="path592" d="M 254.973,358.627 L 254.765,402.753" style="fill:none;fill-opacity:1;fill-rule:evenodd;stroke:#000000;stroke-width:3.63626146;stroke-linecap:butt;stroke-linejoin:miter;stroke-dasharray:none;stroke-opacity:1"/>
                  <path id="path593" d="M 269.959,360.5 L 269.543,406.708" style="fill:none;fill-opacity:1;fill-rule:evenodd;stroke:#000000;stroke-width:3.63626146;stroke-linecap:butt;stroke-linejoin:miter;stroke-dasharray:none;stroke-opacity:1"/>
                  <path id="path594" d="M 283.489,361.541 L 283.28,408.373" style="fill:none;fill-opacity:1;fill-rule:evenodd;stroke:#000000;stroke-width:3.63626146;stroke-linecap:butt;stroke-linejoin:miter;stroke-dasharray:none;stroke-opacity:1"/>
                  <path id="path595" d="M 298.683,361.957 L 298.683,408.789" style="fill:none;fill-opacity:1;fill-rule:evenodd;stroke:#000000;stroke-width:3.63626146;stroke-linecap:butt;stroke-linejoin:miter;stroke-dasharray:none;stroke-opacity:1"/>
                  <path id="path598" d="M 313.253,361.749 L 313.461,408.581" style="fill:none;fill-opacity:1;fill-rule:evenodd;stroke:#000000;stroke-width:3.63626146;stroke-linecap:butt;stroke-linejoin:miter;stroke-dasharray:none;stroke-opacity:1"/>
                  <path transform="translate(-0.41626,-3.051758e-5)" id="path599" d="M 326.782,360.5 L 327.198,406.5" style="fill:none;fill-opacity:1;fill-rule:evenodd;stroke:#000000;stroke-width:3.63626146;stroke-linecap:butt;stroke-linejoin:miter;stroke-dasharray:none;stroke-opacity:1"/>
                  <path id="path604" d="M 341.56,358.003 L 341.768,402.129" style="fill:none;fill-opacity:1;fill-rule:evenodd;stroke:#000000;stroke-width:3.63626146;stroke-linecap:butt;stroke-linejoin:miter;stroke-dasharray:none;stroke-opacity:1"/>
                  <path id="path606" d="M 355.297,352.591 L 355.714,394.219" style="fill:none;fill-opacity:1;fill-rule:evenodd;stroke:#000000;stroke-width:3.63626146;stroke-linecap:butt;stroke-linejoin:miter;stroke-dasharray:none;stroke-opacity:1"/>
                </g>
              </g>
            </g>
          </g>
          <g style="font-size:12px;fill:none;fill-opacity:1;stroke:#000000;stroke-opacity:1" id="g675">
            <path sodipodi:nodetypes="csssssc" id="path573" d="M 171.498,235.561 C 152.362,216.958 138.988,184.673 137.132,149.809 C 135.117,111.389 155.35,73.2389 185.669,51.4898 C 219.638,27.5804 276.435,20.9678 311.751,22.7523 C 335.672,22.7689 388.957,35.1725 407.766,49.18 C 440.76,73.1701 458.454,107.22 459.68,146.03 C 461.493,185.013 445.074,214.705 424.969,233.236" style="fill:none;fill-opacity:1;fill-rule:evenodd;stroke:#000000;stroke-width:9.09065342;stroke-linecap:round;stroke-linejoin:round;stroke-dasharray:none;stroke-opacity:1"/>
            <path sodipodi:nodetypes="cscccscc" id="path580" d="M 172.662,126.267 C 164.91,133.049 165.888,143.244 167.284,158.459 C 168.386,170.019 175.762,181.398 176.15,191.959 C 178.862,214.244 172.274,236.529 169.173,254.745 C 167.041,275.673 173.05,293.695 180.801,300.671 C 188.552,307.551 198.557,310.4 209.069,313.607 C 218.62,316.105 223.573,320.449 230.797,325.835 C 239.403,334.972 241.456,342.529 241.262,351.831" style="fill:none;fill-opacity:1;fill-rule:evenodd;stroke:#000000;stroke-width:9.09065342;stroke-linecap:butt;stroke-linejoin:round;stroke-dasharray:none;stroke-opacity:1"/>
            <path transform="matrix(-1,0,0,1,597.7228,-0.58139)" sodipodi:nodetypes="cscccscc" id="path581" d="M 172.662,126.267 C 164.91,133.049 165.888,143.244 167.284,158.459 C 168.386,170.019 175.762,181.398 176.15,191.959 C 178.862,214.244 172.274,236.529 169.173,254.745 C 167.041,275.673 173.05,293.695 180.801,300.671 C 188.552,307.551 202.738,311.246 209.069,313.607 C 216.446,316.188 223.989,320.865 230.797,326.251 C 238.987,334.139 241.456,342.529 241.262,351.831" style="fill:none;fill-opacity:1;fill-rule:evenodd;stroke:#000000;stroke-width:9.09065342;stroke-linecap:butt;stroke-linejoin:round;stroke-dasharray:none;stroke-opacity:1"/>
            <path sodipodi:nodetypes="ccccc" id="path613" d="M 194.821,310.959 C 201.759,327.749 209.113,344.123 209.807,361.329 C 206.616,375.205 207.587,391.579 211.056,404.623 C 215.497,422.523 232.842,443.753 250.188,450.83 C 267.949,457.282 279.05,458.948 298.892,458.948" style="fill:none;fill-opacity:1;fill-rule:evenodd;stroke:#000000;stroke-width:9.09065342;stroke-linecap:butt;stroke-linejoin:miter;stroke-dasharray:none;stroke-opacity:1"/>
            <path transform="matrix(-1,0,0,1,596.7438,-3.051758e-5)" sodipodi:nodetypes="ccccc" id="path614" d="M 194.821,310.959 C 201.759,327.749 209.113,344.123 209.807,361.329 C 206.616,375.205 207.587,391.579 211.056,404.623 C 215.497,422.523 233.05,443.129 250.396,450.206 C 267.741,457.283 278.841,458.948 298.684,458.948" style="fill:none;fill-opacity:1;fill-rule:evenodd;stroke:#000000;stroke-width:9.09065342;stroke-linecap:butt;stroke-linejoin:miter;stroke-dasharray:none;stroke-opacity:1"/>
          </g>
        </g>
      </g>
    </g>
  </g>
</svg>